<svg xmlns="http://www.w3.org/2000/svg" viewBox="0 0 172.62 142.38"><defs><style>.cls-1{fill:#6157ff;}.cls-1,.cls-10,.cls-11,.cls-13,.cls-14,.cls-15,.cls-2,.cls-3,.cls-4,.cls-5,.cls-7,.cls-8,.cls-9{stroke:#000;stroke-miterlimit:10;}.cls-1,.cls-14,.cls-2,.cls-3,.cls-4,.cls-5{stroke-width:1.9px;}.cls-2{fill:#93f;}.cls-3{fill:#e646b6;}.cls-4{fill:#ff5959;}.cls-5{fill:#ffc636;}.cls-6{fill:#0cf;}.cls-12,.cls-7{fill:#00e6cc;}.cls-10,.cls-11,.cls-13,.cls-7,.cls-8,.cls-9{stroke-width:1.9px;}.cls-8,.cls-9{fill:#231f20;}.cls-8{opacity:0.6;}.cls-9{opacity:0.4;}.cls-10{opacity:0.2;}.cls-11{fill:#fff35c;}.cls-13,.cls-15{fill:none;}.cls-15{stroke-width:1.9px;}.cls-16{fill:#fff;}</style></defs><title>Asset 1</title><g id="Layer_2" data-name="Layer 2"><g id="Layer_1-2" data-name="Layer 1"><g id="GOOD"><rect class="cls-1" x="0.95" y="20.91" width="170.72" height="20.4" transform="translate(172.62 62.22) rotate(180)"/><rect class="cls-2" x="0.95" y="41.31" width="170.72" height="20.4" transform="translate(172.62 103.02) rotate(180)"/><rect class="cls-3" x="0.95" y="61.71" width="170.72" height="20.4" transform="translate(172.62 143.82) rotate(180)"/><rect class="cls-4" x="0.95" y="82.11" width="170.72" height="20.4" transform="translate(172.62 184.62) rotate(180)"/><rect class="cls-5" x="0.95" y="102.51" width="170.72" height="20.4" transform="translate(172.62 225.42) rotate(180)"/><polygon class="cls-6" points="44.71 123.67 171.67 123.72 171.67 20.91 137.98 20.91 125.38 45.33 98.24 66.31 92 67.68 57.7 104.57 42.66 122.22 44.71 123.67"/><path class="cls-7" d="M105.06,90.44a3.24,3.24,0,0,0-1.85-3.53A5.82,5.82,0,0,0,99,86.83a10,10,0,0,0-3.31,1.8,18.13,18.13,0,0,0-4.21,5.78,29.73,29.73,0,0,0-2.94,7.35c-.33,1.48-.46,3-.66,4.5a47,47,0,0,1-1.09,5.63,6.88,6.88,0,0,0-.29,4c.65,1.89,3.07,2.76,5,2.16a7,7,0,0,0,4.06-4.16A31.19,31.19,0,0,0,97,108a41.09,41.09,0,0,1,7.08-15.86A5.5,5.5,0,0,0,105.06,90.44Z"/><path class="cls-8" d="M105.06,90.44a3.24,3.24,0,0,0-1.85-3.53A5.82,5.82,0,0,0,99,86.83a10,10,0,0,0-3.31,1.8,18.13,18.13,0,0,0-4.21,5.78,29.73,29.73,0,0,0-2.94,7.35c-.33,1.48-.46,3-.66,4.5a47,47,0,0,1-1.09,5.63,6.88,6.88,0,0,0-.29,4c.65,1.89,3.07,2.76,5,2.16a7,7,0,0,0,4.06-4.16A31.19,31.19,0,0,0,97,108a41.09,41.09,0,0,1,7.08-15.86A5.5,5.5,0,0,0,105.06,90.44Z"/><path class="cls-7" d="M115.59,70.57c-.08-.88,1.11-2,.65-2.76-.95-1.53-4.29-1.65-6.08-1.81-3.08-.27-6.28-.45-9.16.67-3,1.18-5.37,3.65-7.52,6.1a42.81,42.81,0,0,0-4.61,6A48.24,48.24,0,0,0,86,84.51C83.2,91,80.33,97.57,79.74,104.6a10.7,10.7,0,0,0,.33,4.33,4.55,4.55,0,0,0,2.94,3,5.06,5.06,0,0,0,2.67-.14,9,9,0,0,0,4.64-3.18,15,15,0,0,0,2.31-5.16c1.13-4.07,1.66-8.29,2.85-12.34s3.18-8,6.56-10.56c2.95-2.21,6.66-3.07,10.21-4a5.49,5.49,0,0,0,2.07-.9C115.72,74.47,115.75,72.37,115.59,70.57Z"/><path class="cls-9" d="M116.61,69.89a6.12,6.12,0,0,0-.91-2.54c-1-1.53-3.75-1.19-5.54-1.35-3.08-.27-6.28-.45-9.16.67-3,1.18-5.37,3.65-7.52,6.1a42.81,42.81,0,0,0-4.61,6A48.24,48.24,0,0,0,86,84.51C83.2,91,80.33,97.57,79.74,104.6a10.7,10.7,0,0,0,.33,4.33,4.55,4.55,0,0,0,2.94,3,5.06,5.06,0,0,0,2.67-.14,9,9,0,0,0,4.64-3.18,15,15,0,0,0,2.31-5.16c1.13-4.07,1.66-8.29,2.85-12.34s3.18-8,6.56-10.56c2.95-2.21,6.66-3.07,10.21-4a5.49,5.49,0,0,0,2.07-.9A7.75,7.75,0,0,0,116.61,69.89Z"/><path class="cls-7" d="M118.19,69.68A19.56,19.56,0,0,0,92.3,75.89c-4.37,6.55-4.42,15-6.71,22.51a14.94,14.94,0,0,1-2.71,5.49c-1.4,1.63-3.66,2.78-5.68,2.08-2.46-.85-3.35-3.81-3.8-6.38C72.07,92,71.73,83.86,75,76.87a39.08,39.08,0,0,1,4.09-6.56A49.83,49.83,0,0,1,88.7,60.05,23.7,23.7,0,0,1,101.62,55c5.91-.29,11.57,2.23,16.89,4.82-.06,0,.09-.15.15-.12s.07.11.07.18c0,3.33-.77,6.64-.53,10C118.19,69.7,118.2,69.78,118.19,69.68Z"/><path class="cls-10" d="M118.19,69.68A19.56,19.56,0,0,0,92.3,75.89c-4.37,6.55-4.42,15-6.71,22.51a14.94,14.94,0,0,1-2.71,5.49c-1.4,1.63-3.66,2.78-5.68,2.08-2.46-.85-3.35-3.81-3.8-6.38C72.07,92,71.73,83.86,75,76.87a39.08,39.08,0,0,1,4.09-6.56A49.83,49.83,0,0,1,88.7,60.05,23.7,23.7,0,0,1,101.62,55c5.91-.29,11.57,2.23,16.89,4.82-.06,0,.09-.15.15-.12s.07.11.07.18c0,3.33-.77,6.64-.53,10C118.19,69.7,118.2,69.78,118.19,69.68Z"/><path class="cls-7" d="M171.67,103.37a121.7,121.7,0,0,0-12.52.31c-4,.36-8.05,1-12.11,1-12.28.07-23.9-5.51-36.09-7-5-.61-10.09-.52-15.13-1-8.72-.81-17.19-3.26-25.61-5.7a9.32,9.32,0,0,1-1.85-.68C65.83,89,65,85.51,66.09,82.87a9.81,9.81,0,0,1,6.42-5.24A28.69,28.69,0,0,1,81,76.84L99.16,77c4.72,0,7.81,0,11.56-1.27a7.89,7.89,0,0,0,4-4.31c1.25-2.81,2-6.63-.67-9.54s-7.33-3.63-11.24-3.35c-6.58.48-12.56,5.11-17.08,9.92S78,79.07,74.87,84.89c-1.28,2.37-2.63,4.85-4.87,6.34s-5.66,1.59-7.33-.53c-1.54-1.93-1-4.75-.25-7.1,2.06-6.21,5.47-11.86,8.88-17.43,3.06-5,6.21-10.06,10.6-13.94a51.42,51.42,0,0,1,12.29-7.55q6.14-2.91,12.48-5.35c3.29-1.27,6.73-2.45,10.25-2.19,5.7.43,10.37,4.51,14.71,8.26q9.83,8.52,20.41,16.12c4.24,3,8.62,6,13.52,7.76a44.16,44.16,0,0,0,6.11,1.57Z"/><g id="USE_THIS" data-name="USE THIS"><path class="cls-7" d="M72.44,88.88A10.27,10.27,0,0,1,70,91.23c-2.25,1.49-5.66,1.59-7.33-.53-1.54-1.93-1-4.75-.25-7.1,2.06-6.21,5.47-11.86,8.88-17.43,3.06-5,6.21-10.06,10.6-13.94"/><polygon class="cls-11" points="44.24 121.95 42.51 121.88 93.52 50.58 93.97 61.14 114.92 28.63 115.79 39.82 139.92 2.84 141.97 28.16 110.94 68.86 110.56 57.81 89.02 84.92 88.64 76.26 44.24 121.95"/><path class="cls-12" d="M87.94,77.26c-2,.26-5.59-.41-7-.42a28.69,28.69,0,0,0-8.48.79,9.81,9.81,0,0,0-6.42,5.24C65,85.51,65.83,89,68.36,90.35a9.32,9.32,0,0,0,1.85.68C75,92.43,80.65,94,85.88,95.16"/><path class="cls-13" d="M88.1,77.25A68.68,68.68,0,0,0,81,76.84a30.09,30.09,0,0,0-8.48.79,9.81,9.81,0,0,0-6.42,5.24C65,85.51,65.83,89,68.36,90.35a9.32,9.32,0,0,0,1.85.68C75,92.43,80.65,94,85.88,95.16"/></g><rect class="cls-14" x="0.95" y="122.91" width="170.72" height="18.52"/><polyline class="cls-15" points="127.91 20.91 0.95 20.91 0.95 141.43 171.67 141.43 171.67 20.91 141.91 20.91"/><path class="cls-16" d="M16.68,131.65a6.17,6.17,0,0,1-1,3.8,4.63,4.63,0,0,1-4,1.89,4.86,4.86,0,0,1-5.13-5.08,4.92,4.92,0,0,1,5.22-5.17,4.47,4.47,0,0,1,4.34,2.69l-2.37,1a2.18,2.18,0,0,0-2.08-1.53c-1.65,0-2.5,1.57-2.5,3a2.74,2.74,0,0,0,2.54,3,1.82,1.82,0,0,0,2-1.67h-2v-2Z"/><path class="cls-16" d="M29.06,137h-2.5V127.4h2.5Z"/><path class="cls-16" d="M39.43,127.4h3.83c2.06,0,3.49,1,3.49,3.17s-1.22,3.26-3.4,3.26H41.93V137h-2.5Zm2.5,4.42h.42c.91,0,1.8,0,1.8-1.18s-.83-1.22-1.8-1.22h-.42Z"/><path class="cls-16" d="M62.71,131.12V127.4h2.5V137h-2.5v-3.94H59.1V137H56.59V127.4H59.1v3.72Z"/><path class="cls-16" d="M74.51,127.4h3l1.8,2.62,1.8-2.62h3l-3.54,5V137h-2.5V132.4Z"/><path class="cls-16" d="M109,135.35l-.66,1.67h-2.66l3.7-9.62h2.73l3.63,9.62H113l-.63-1.67Zm1.75-5h0l-1,3.06h2.08Z"/><path class="cls-16" d="M133.21,137H130.1l-2.36-3.7h0V137h-2.5V127.4H129c1.9,0,3.35.91,3.35,3a2.58,2.58,0,0,1-2.11,2.72Zm-5.49-5.3H128c.82,0,1.73-.16,1.73-1.2s-.91-1.2-1.73-1.2h-.24Z"/><path class="cls-16" d="M146.45,137H144v-7.5h-2.07V127.4h6.64v2.12h-2.07Z"/><path class="cls-16" d="M163.44,129.88a2.66,2.66,0,0,0-1.66-.64c-.46,0-1.07.27-1.07.8s.67.78,1.11.92l.64.19c1.33.4,2.37,1.08,2.37,2.63a3.25,3.25,0,0,1-1,2.59,4.21,4.21,0,0,1-2.73.91,5.93,5.93,0,0,1-3.38-1.1l1.07-2a3.45,3.45,0,0,0,2.22,1c.59,0,1.22-.29,1.22-1s-1-.94-1.52-1.1c-1.57-.44-2.61-.85-2.61-2.71a3.12,3.12,0,0,1,3.32-3.23,6.49,6.49,0,0,1,3,.79Z"/></g></g></g></svg>