<svg xmlns="http://www.w3.org/2000/svg" viewBox="0 0 430.48 87.17"><defs><style>.cls-1{fill:#0f9;}.cls-2{fill:#93f;}.cls-3{fill:#0cf;}.cls-4{fill:#ff9;}.cls-5{fill:#f66;}.cls-6{fill:#4c197f;}</style></defs><title>Asset 1</title><g id="Layer_2" data-name="Layer 2"><g id="Layer_1-2" data-name="Layer 1"><rect x="187.59" y="9.72" width="19.91" height="68.56"/><polygon points="330.99 9.71 330.99 35.62 307.21 35.62 307.21 9.71 287.29 9.71 287.29 78.27 307.21 78.27 307.21 52.89 330.99 52.89 330.99 78.27 350.91 78.27 350.91 9.71 330.99 9.71"/><polygon points="403.93 78.27 403.93 51.44 430.48 9.71 407.91 9.71 393.98 32.67 380.05 9.71 357.48 9.71 384.03 51.44 384.03 78.27 403.93 78.27"/><path d="M258,9.72H220.31V78.27h19.9V60.11H258C266.41,60.11,281,52,281,34.88S266.41,9.72,258,9.72Zm-5,33.73H240.21V26.37H253a8.94,8.94,0,0,1,8.8,8.51A9,9,0,0,1,253,43.45Z"/><path d="M176.42,66V36.1H142.79V51.44h17.38v9s-6.41,3.27-12.39,3.27-19.24-2.13-19.24-20.94c0-16.11,12.54-19.1,18.67-19.1a23.11,23.11,0,0,1,15.67,6.55l11-11.54S165.17,7.6,146.78,7.6,109.15,19.1,109.15,44c0,23,15.25,36.57,36.92,36.57C171,80.56,176.42,66,176.42,66Z"/><rect class="cls-1" y="8.9" width="8.89" height="69.38"/><rect class="cls-2" x="62.25" y="26.68" width="8.9" height="51.59"/><rect class="cls-3" y="78.27" width="71.14" height="8.89"/><rect class="cls-4" width="44.46" height="8.9"/><polygon class="cls-5" points="62.25 17.79 62.25 8.89 53.36 8.89 53.36 0 44.46 0 44.46 26.68 71.14 26.68 71.14 17.79 62.25 17.79"/><rect class="cls-6" x="62.25" y="26.68" width="8.9" height="8.89"/></g></g></svg>